<?xml version="1.0" encoding="utf-8"?>
<!-- Generator: Adobe Illustrator 27.7.0, SVG Export Plug-In . SVG Version: 6.00 Build 0)  -->
<svg version="1.1" id="Layer_1" xmlns="http://www.w3.org/2000/svg" xmlns:xlink="http://www.w3.org/1999/xlink" x="0px" y="0px"
	 viewBox="0 0 265 264" style="enable-background:new 0 0 265 264;" xml:space="preserve">
<style type="text/css">
	.st0{fill:#221F1F;}
	.st1{fill:#F16623;}
</style>
<path class="st0" d="M27.1,123.8L71,111.2c0.2-0.2,0.3-0.3,0.5-0.5l75.2-75.2c11.5-11.5,30.3-11.5,41.8,0l25.2,25.2
	c11.5,11.5,11.5,30.3,0,41.8l-75.1,75.1c-11.5,11.5-30.3,11.5-41.8,0l-25-25c-3.3-3.3-5.7-7.2-7.2-11.6L27.1,123.8z M79.2,123.9
	L64.3,127l12.7,3.8l0.7,3.6c0.6,3,2.1,5.7,4.3,7.9l25,25c5.9,5.9,15.5,5.9,21.4,0l75.1-75.1c5.9-5.9,5.9-15.5,0-21.4l-25.2-25.2
	c-5.9-5.9-15.5-5.9-21.4,0l-75.2,75.2c-0.4,0.4-0.7,0.8-1.1,1.2L79.2,123.9z"/>
<circle class="st0" cx="166.9" cy="84.9" r="14.5"/>
<circle class="st1" cx="119.9" cy="132.7" r="14.5"/>
<g>
	<path d="M79.7,232.9h12.1v7.1H70.5v-37.9h9.2V232.9z"/>
	<path d="M102,238.6c-2.4-1.3-4.2-3.1-5.6-5.4c-1.4-2.3-2-5.1-2-8.2c0-3.1,0.7-5.8,2.1-8.2c1.4-2.4,3.2-4.2,5.6-5.4
		c2.4-1.3,5-1.9,8-1.9c3,0,5.6,0.6,8,1.9c2.4,1.3,4.2,3.1,5.6,5.4c1.4,2.4,2.1,5.1,2.1,8.2c0,3.1-0.7,5.8-2.1,8.2
		c-1.4,2.4-3.3,4.2-5.7,5.4c-2.4,1.3-5.1,1.9-8,1.9C107,240.5,104.3,239.9,102,238.6z M114.5,230.5c1.2-1.3,1.9-3.1,1.9-5.6
		c0-2.4-0.6-4.3-1.8-5.6c-1.2-1.3-2.7-1.9-4.5-1.9c-1.8,0-3.3,0.6-4.5,1.9s-1.8,3.1-1.8,5.6c0,2.4,0.6,4.3,1.8,5.6
		c1.2,1.3,2.6,1.9,4.4,1.9C111.7,232.5,113.2,231.8,114.5,230.5z"/>
	<path d="M147.7,210.8c1.6,0.9,2.8,2,3.7,3.4v-4.3h9.2V240c0,2.8-0.5,5.3-1.6,7.5c-1.1,2.2-2.8,4-5,5.4c-2.2,1.3-5,2-8.4,2
		c-4.5,0-8.1-1.1-10.9-3.2c-2.8-2.1-4.4-5-4.8-8.6h9.1c0.3,1.2,1,2.1,2.1,2.7c1.1,0.7,2.4,1,4,1c1.9,0,3.4-0.5,4.6-1.6
		c1.1-1.1,1.7-2.9,1.7-5.3v-4.3c-0.9,1.4-2.1,2.5-3.7,3.4c-1.6,0.9-3.4,1.3-5.6,1.3c-2.5,0-4.7-0.6-6.8-1.9c-2-1.3-3.6-3.1-4.8-5.5
		c-1.2-2.4-1.8-5.1-1.8-8.2c0-3.1,0.6-5.8,1.8-8.2c1.2-2.3,2.8-4.1,4.8-5.4c2-1.3,4.3-1.9,6.8-1.9
		C144.2,209.5,146.1,209.9,147.7,210.8z M149.4,219.5c-1.3-1.3-2.8-2-4.7-2s-3.4,0.7-4.7,2c-1.3,1.3-1.9,3.1-1.9,5.4
		c0,2.3,0.6,4.1,1.9,5.5c1.3,1.4,2.8,2,4.7,2s3.4-0.7,4.7-2c1.3-1.3,1.9-3.1,1.9-5.5C151.4,222.7,150.7,220.9,149.4,219.5z"/>
	<path d="M173,238.6c-2.4-1.3-4.2-3.1-5.6-5.4c-1.4-2.3-2-5.1-2-8.2c0-3.1,0.7-5.8,2.1-8.2c1.4-2.4,3.2-4.2,5.6-5.4
		c2.4-1.3,5-1.9,8-1.9c3,0,5.6,0.6,8,1.9c2.4,1.3,4.2,3.1,5.6,5.4c1.4,2.4,2.1,5.1,2.1,8.2c0,3.1-0.7,5.8-2.1,8.2
		c-1.4,2.4-3.3,4.2-5.7,5.4c-2.4,1.3-5.1,1.9-8,1.9C178.1,240.5,175.4,239.9,173,238.6z M185.5,230.5c1.2-1.3,1.9-3.1,1.9-5.6
		c0-2.4-0.6-4.3-1.8-5.6c-1.2-1.3-2.7-1.9-4.5-1.9c-1.8,0-3.3,0.6-4.5,1.9s-1.8,3.1-1.8,5.6c0,2.4,0.6,4.3,1.8,5.6
		c1.2,1.3,2.6,1.9,4.4,1.9C182.8,232.5,184.3,231.8,185.5,230.5z"/>
</g>
</svg>
